<svg xmlns="http://www.w3.org/2000/svg" width="668.3274" height="375.9341625" viewBox="0 0 20480 11520" style="transform: matrix(1.113879, 0, 0, 1.113879, 0, 0); transform-origin: 50% 50%; cursor: move; max-height: 375.934163px; transition: transform 200ms ease-in-out; position: absolute; left: -14.163696px; top: 0.782913px; width: 668.3274px; max-width: 668.3274px; height: 375.934163px;"><g id="l50PLLwcVPO3voHdBxjDok4" fill="rgb(3,142,205)" style="transform: none;"><g style="transform: none;"><path id="p15pXMpFNf" d="M1300 10225 c0 -781 2 -925 14 -925 7 0 16 9 19 20 3 11 17 22 33 26 16 3 101 28 189 54 88 26 169 50 180 53 19 5 271 79 465 137 233 69 312 91 316 88 3 -4 -46 -120 -301 -713 -42 -99 -119 -279 -171 -400 -51 -121 -169 -398 -262 -615 l-169 -395 -141 -41 c-134 -39 -142 -41 -142 -22 0 11 -5 18 -13 16 -9 -4 -13 -83 -15 -341 -2 -295 0 -337 13 -337 9 0 15 9 15 23 0 13 4 27 9 32 4 6 70 154 145 331 l137 321 177 53 c97 28 254 74 347 102 94 27 197 58 230 68 33 10 148 44 255 75 107 32 267 79 355 105 88 26 264 77 390 115 127 37 263 77 303 90 39 13 72 21 72 19 0 -3 -34 -85 -76 -182 -42 -97 -128 -298 -191 -447 -207 -486 -621 -1449 -633 -1477 -10 -20 -25 -29 -69 -41 -31 -8 -195 -56 -366 -106 -494 -146 -627 -185 -850 -251 -116 -33 -216 -63 -222 -65 -8 -3 -13 4 -13 16 0 12 -5 19 -12 17 -20 -7 -24 -1968 -4 -1968 7 0 16 8 18 18 4 13 27 24 79 39 118 33 456 133 473 139 9 3 16 1 16 -4 0 -6 -119 -289 -264 -629 -145 -340 -271 -634 -279 -654 -22 -54 -40 -61 -32 -12 7 36 6 37 -9 18 -13 -17 -15 -70 -16 -407 0 -338 2 -388 15 -388 8 0 15 7 15 15 0 9 25 22 72 35 40 12 145 43 233 70 88 26 232 69 320 95 88 26 174 51 190 55 17 5 108 31 202 59 95 28 251 74 345 102 95 28 202 60 238 70 36 11 88 27 115 34 28 8 60 17 72 21 18 5 -9 -64 -186 -478 -114 -265 -308 -718 -430 -1005 -141 -331 -228 -523 -237 -523 -27 0 -14 -18 17 -24 49 -10 474 -7 484 3 6 5 19 12 30 15 11 3 3 4 -17 3 -61 -5 -44 17 29 37 38 11 120 34 183 53 63 19 144 43 180 53 119 35 699 206 979 289 112 34 206 59 209 56 9 -9 -202 -485 -215 -485 -32 0 -9 -19 30 -25 23 -3 462 -4 976 -3 737 2 935 6 939 16 2 6 -3 12 -12 12 -9 0 -16 3 -16 7 0 6 405 958 455 1070 23 51 24 52 97 73 40 12 141 42 223 66 83 25 179 53 215 64 36 10 126 37 200 59 74 22 245 72 380 111 135 40 317 94 405 120 88 26 241 71 340 100 99 29 204 61 234 71 l53 18 -5 -22 c-2 -12 -148 -357 -324 -767 -176 -410 -342 -796 -368 -857 -27 -65 -54 -113 -61 -113 -22 0 -16 -17 9 -24 12 -3 295 -6 628 -6 529 0 610 2 635 16 l29 15 -32 -3 c-55 -5 -38 16 29 35 131 37 448 131 565 167 68 21 123 34 123 29 0 -25 -95 -229 -107 -229 -27 0 -12 -19 20 -25 17 -3 457 -4 976 -3 745 2 945 6 949 16 2 6 -3 12 -12 12 -9 0 -16 4 -16 9 0 4 24 64 54 132 30 68 109 254 176 412 68 159 130 297 139 307 9 10 61 31 116 48 55 16 179 52 275 81 96 28 265 77 375 110 110 32 279 82 375 110 234 69 279 83 460 136 85 26 184 55 220 64 36 10 118 34 183 54 105 31 118 34 114 18 -2 -10 -145 -347 -317 -749 -191 -445 -319 -732 -327 -732 -22 0 -15 -19 10 -25 12 -3 874 -4 1916 -3 1505 2 1895 6 1899 16 2 7 -5 12 -16 12 -16 0 -1 42 112 307 l132 307 104 32 c58 17 193 57 300 89 107 31 222 65 255 75 33 10 155 46 270 80 116 34 275 81 355 105 80 24 181 53 225 65 43 12 85 24 92 27 8 3 13 -3 13 -17 0 -11 5 -18 10 -15 14 9 14 1955 0 1955 -5 0 -10 -6 -10 -14 0 -8 -15 -16 -37 -19 -21 -4 -173 -47 -338 -96 -165 -49 -301 -89 -302 -88 -2 3 651 1528 665 1552 10 18 11 15 12 -20 0 -30 3 -36 10 -25 13 21 13 600 0 600 -5 0 -10 -6 -10 -14 0 -9 -22 -21 -57 -31 -32 -9 -94 -27 -138 -40 -44 -13 -143 -43 -220 -66 -77 -22 -185 -54 -240 -71 -55 -16 -113 -33 -130 -38 -16 -4 -93 -27 -170 -50 -77 -23 -153 -45 -170 -50 -16 -4 -93 -27 -170 -50 -77 -23 -153 -45 -170 -50 -16 -4 -93 -27 -170 -50 -183 -54 -269 -79 -271 -77 -5 5 907 2122 918 2132 7 7 69 28 138 48 69 20 217 64 330 97 314 94 508 150 514 150 3 0 6 -7 6 -15 0 -8 5 -15 10 -15 7 0 10 333 10 980 0 647 -3 980 -10 980 -5 0 -10 -6 -10 -14 0 -9 -19 -20 -47 -29 -27 -7 -49 -13 -51 -12 -1 1 19 51 45 111 l48 109 5 -40 c15 -122 20 80 20 876 0 579 -3 879 -10 879 -5 0 -10 -6 -10 -14 0 -8 -25 -20 -62 -31 -66 -18 -833 -244 -1091 -321 -82 -24 -153 -47 -158 -50 -21 -12 -3 36 126 336 83 194 140 316 150 318 8 2 15 10 15 18 0 22 -1955 21 -1964 -1 -4 -10 1 -15 14 -15 11 0 20 -2 20 -5 0 -4 -205 -487 -421 -989 -70 -164 -132 -302 -136 -306 -4 -4 -141 -47 -303 -95 -162 -48 -509 -150 -770 -227 -261 -77 -549 -162 -640 -189 -91 -26 -210 -62 -265 -78 -54 -17 -101 -28 -103 -26 -4 3 197 477 649 1530 87 204 166 375 174 381 43 32 17 34 -372 34 -315 -1 -394 -4 -418 -15 l-30 -14 30 0 c17 1 37 0 45 0 23 -3 -46 -31 -140 -57 -47 -13 -328 -95 -625 -183 -297 -87 -541 -158 -543 -156 -8 7 164 395 176 395 6 0 12 7 12 15 0 13 -116 15 -980 15 -864 0 -980 -2 -980 -15 0 -8 7 -15 15 -15 8 0 15 -5 15 -10 0 -6 -32 -86 -71 -178 -351 -821 -358 -837 -381 -849 -21 -10 -87 -31 -483 -147 -111 -32 -733 -216 -1359 -401 -142 -42 -260 -74 -263 -72 -2 3 97 241 220 529 124 288 282 660 353 826 71 166 135 302 142 302 6 0 12 7 12 15 0 13 -92 15 -767 15 -661 -1 -771 -3 -793 -16 l-25 -14 25 1 c14 1 32 1 40 0 25 -2 -7 -19 -70 -37 -30 -8 -124 -36 -208 -61 -85 -24 -156 -43 -158 -40 -11 10 55 137 70 137 9 0 16 7 16 15 0 13 -113 15 -982 13 -774 -2 -982 -6 -986 -15 -2 -7 3 -13 12 -13 9 0 16 -5 16 -11 0 -21 -313 -744 -329 -760 -14 -15 -413 -134 -1911 -574 -107 -31 -198 -59 -202 -62 -5 -2 -8 0 -8 5 0 8 340 808 527 1241 45 103 73 155 85 159 10 2 18 11 18 18 0 12 -147 14 -945 14 l-945 0 0 -925z m5520 715 c0 -6 -4 -18 -10 -28 -8 -14 -248 -573 -813 -1900 l-82 -192 -70 -21 c-38 -11 -151 -44 -250 -74 -99 -29 -290 -85 -425 -125 -135 -40 -312 -92 -395 -117 -82 -24 -179 -53 -215 -63 -93 -27 -493 -146 -640 -190 -69 -20 -126 -34 -128 -30 -2 5 200 483 449 1063 l452 1056 86 26 c47 15 100 31 116 36 17 5 116 34 220 65 400 117 682 200 910 267 66 20 266 79 444 132 179 52 327 98 330 100 8 9 21 5 21 -5z m5527 -264 c-7 -17 -771 -1807 -851 -1991 -47 -110 -54 -120 -86 -132 -19 -6 -206 -62 -415 -123 -416 -122 -542 -159 -835 -245 -107 -32 -276 -81 -375 -110 -99 -29 -242 -72 -318 -95 -76 -23 -141 -40 -144 -37 -4 5 393 940 786 1852 l116 269 75 23 c41 13 98 30 125 38 28 7 113 32 190 55 77 23 154 46 170 50 36 10 353 103 445 132 36 11 74 22 85 25 11 3 103 30 205 60 102 30 259 76 350 103 91 26 233 68 315 93 175 52 169 51 162 33z m5495 -263 c-5 -10 -168 -389 -362 -843 -194 -454 -396 -926 -449 -1050 l-96 -224 -140 -42 c-77 -23 -225 -67 -330 -97 -104 -31 -383 -113 -620 -183 -236 -69 -556 -163 -710 -208 -154 -46 -281 -80 -283 -76 -2 5 271 648 782 1839 67 156 128 288 136 292 8 4 47 17 85 28 98 29 419 123 615 181 367 107 652 192 1045 309 165 49 308 90 318 90 14 1 16 -3 9 -16z m-9792 -988 c0 -3 -127 -301 -281 -663 -155 -361 -355 -830 -446 -1042 -90 -212 -170 -394 -177 -404 -8 -13 -46 -29 -107 -47 -97 -28 -1200 -353 -1649 -486 -392 -116 -382 -113 -376 -100 15 34 893 2084 899 2099 6 18 50 33 412 138 245 72 559 165 950 280 77 23 160 48 185 55 25 7 101 29 170 50 69 20 148 43 175 50 28 8 91 27 140 44 99 32 105 33 105 26z m5527 -267 c-2 -7 -133 -312 -289 -678 -157 -366 -359 -838 -449 -1049 -120 -281 -169 -386 -184 -392 -11 -4 -108 -33 -215 -64 -107 -31 -260 -76 -340 -100 -80 -23 -255 -75 -390 -115 -135 -40 -310 -91 -390 -115 -80 -24 -230 -68 -335 -99 -104 -30 -237 -69 -295 -87 -58 -17 -114 -33 -124 -37 -15 -4 -18 -1 -14 14 3 10 199 471 436 1024 236 553 437 1022 445 1042 9 21 26 42 39 47 13 6 118 37 233 71 232 68 442 130 730 215 105 31 219 64 255 75 248 72 542 160 790 235 90 27 104 29 97 13z m5225 -890 c-151 -354 -356 -834 -456 -1067 l-182 -424 -124 -37 c-145 -43 -380 -113 -815 -240 -170 -50 -492 -146 -715 -212 -223 -66 -414 -123 -424 -126 -11 -3 -17 -1 -14 4 4 5 207 479 453 1054 246 575 453 1055 460 1066 8 12 24 24 37 27 22 4 95 26 388 112 157 46 194 57 300 88 47 13 200 59 340 100 140 42 293 87 340 101 47 13 148 43 225 66 77 23 200 59 274 81 73 21 136 41 139 44 3 3 15 5 27 5 20 0 -3 -59 -253 -642z m-9525 -370 c-2 -7 -104 -245 -225 -528 -121 -283 -322 -753 -447 -1045 -124 -291 -232 -535 -238 -541 -7 -6 -68 -27 -137 -46 -111 -32 -471 -138 -1350 -398 -151 -45 -312 -92 -357 -106 -46 -13 -120 -35 -165 -48 -46 -14 -91 -28 -101 -32 -17 -6 -17 -5 -4 27 46 108 260 609 547 1279 180 421 330 775 334 788 4 12 15 26 24 31 15 8 453 139 937 281 72 21 171 50 220 65 50 14 126 37 170 50 44 13 136 40 205 60 69 21 154 46 190 56 36 10 137 41 225 68 182 56 179 55 172 39z m5531 -256 c-1 -5 -77 -181 -168 -393 -90 -211 -293 -685 -451 -1054 -203 -474 -292 -671 -305 -676 -11 -4 -145 -44 -299 -89 -154 -45 -368 -108 -475 -140 -107 -32 -305 -90 -440 -130 -135 -39 -321 -94 -415 -122 -93 -27 -237 -70 -318 -94 -82 -25 -152 -44 -156 -42 -4 2 196 478 444 1058 490 1144 453 1069 539 1091 28 6 195 55 476 138 52 16 165 49 250 74 85 25 317 94 515 152 198 59 412 122 475 140 63 19 158 47 210 64 102 31 124 36 118 23z m-10278 -2053 c-248 -580 -456 -1059 -463 -1066 -10 -10 -381 -122 -1237 -373 -91 -26 -226 -66 -300 -88 -74 -22 -229 -68 -345 -102 -116 -34 -219 -64 -229 -67 -14 -5 -18 -2 -13 8 18 43 240 559 252 584 18 42 620 1452 638 1497 13 31 23 39 59 48 38 11 96 28 343 101 39 11 84 25 100 30 61 19 341 101 370 109 27 7 234 68 475 139 52 16 165 49 250 74 449 132 534 158 539 162 2 3 6 3 8 1 2 -2 -199 -477 -447 -1057z m5980 797 c0 -2 -18 -43 -39 -92 -21 -49 -224 -523 -451 -1054 -227 -531 -417 -970 -424 -976 -6 -6 -51 -23 -101 -37 -83 -23 -208 -60 -565 -165 -190 -56 -533 -157 -675 -198 -342 -99 -741 -219 -769 -230 -15 -6 -18 -4 -14 7 78 192 903 2107 912 2115 6 5 43 20 81 31 39 11 102 30 140 42 39 11 149 43 245 72 96 28 258 75 360 105 102 30 271 80 375 111 105 31 262 77 350 103 88 26 169 50 180 53 87 23 370 108 373 112 6 6 22 7 22 1z m5530 -259 c0 -2 -6 -17 -14 -33 -8 -16 -113 -261 -234 -544 -121 -283 -319 -747 -440 -1030 l-220 -515 -479 -141 c-263 -78 -732 -217 -1043 -309 -311 -92 -575 -169 -588 -172 -23 -6 -23 -5 -9 28 8 19 70 162 137 319 67 157 128 299 136 315 44 98 614 1438 614 1445 0 10 54 30 190 69 98 29 285 84 665 196 88 26 219 65 290 85 474 139 883 260 930 275 41 13 65 18 65 12z m-10059 -1538 c-126 -294 -329 -768 -451 -1054 -122 -286 -227 -525 -233 -532 -7 -6 -298 -95 -647 -198 -349 -102 -662 -194 -695 -205 -33 -10 -145 -43 -250 -74 -104 -30 -266 -78 -359 -105 -94 -28 -171 -49 -172 -48 -2 1 69 171 157 377 511 1194 722 1689 736 1717 16 35 -12 25 458 163 273 80 413 121 545 161 129 38 439 129 630 185 107 31 265 78 350 104 85 25 156 46 157 45 2 -1 -100 -242 -226 -536z m5756 269 c-3 -7 -204 -476 -446 -1043 -243 -566 -445 -1040 -451 -1052 -6 -16 -28 -27 -77 -42 -228 -67 -994 -293 -1243 -366 -403 -118 -781 -232 -804 -241 -15 -6 -18 -4 -14 7 8 19 400 937 675 1579 123 289 230 530 236 536 7 7 116 42 242 79 127 37 280 82 340 100 61 18 198 58 305 90 107 31 222 65 255 75 33 10 116 35 185 55 69 20 145 42 170 49 25 8 133 39 240 71 107 32 236 70 285 85 107 33 109 34 102 18z m5529 -256 c-3 -5 -59 -136 -126 -293 -717 -1681 -782 -1829 -809 -1835 -34 -8 -1038 -303 -1391 -409 -389 -116 -703 -206 -707 -202 -2 3 2 19 11 35 8 16 95 216 192 443 255 598 680 1590 694 1620 10 22 34 32 208 83 108 32 278 82 377 111 350 104 906 268 1255 370 124 37 236 70 250 75 33 11 52 12 46 2z m-9839 -1019 c-2 -10 -179 -425 -392 -923 -213 -498 -412 -963 -443 -1035 -30 -71 -60 -135 -66 -141 -10 -10 -172 -60 -816 -249 -80 -23 -233 -68 -340 -100 -107 -32 -238 -70 -290 -85 -52 -16 -167 -50 -255 -76 -361 -106 -420 -123 -422 -120 -2 1 80 196 181 432 101 236 304 710 451 1054 146 344 270 628 274 632 4 5 70 26 146 49 77 22 183 54 235 70 52 16 235 69 405 119 171 51 353 104 405 119 52 16 181 54 285 84 105 31 287 85 405 121 118 35 221 65 229 65 8 1 11 -6 8 -16z m5499 -335 c-49 -116 -729 -1705 -811 -1897 -30 -68 -56 -125 -59 -128 -4 -4 -241 -75 -846 -253 -91 -27 -244 -72 -340 -100 -250 -74 -406 -120 -640 -188 -113 -33 -227 -67 -253 -76 -45 -14 -49 -13 -44 2 3 9 100 235 214 502 115 267 316 736 447 1042 131 306 243 561 249 566 7 5 37 16 67 25 50 15 220 65 345 102 252 74 417 123 460 136 17 5 116 34 220 65 426 124 551 161 780 229 50 15 115 34 145 42 30 8 62 19 70 24 38 22 37 4 -4 -93z m5564 -168 c0 -5 -115 -278 -256 -607 -141 -329 -341 -798 -446 -1043 -104 -245 -195 -451 -202 -458 -6 -7 -41 -21 -76 -31 -36 -11 -126 -37 -200 -59 -246 -73 -553 -163 -720 -211 -91 -27 -380 -112 -644 -190 -263 -78 -480 -140 -482 -139 -1 2 94 231 213 508 119 278 323 755 453 1060 l237 555 129 38 c71 21 203 60 294 87 91 27 228 67 305 90 77 23 149 45 160 47 18 5 237 70 430 127 44 13 123 36 175 51 52 15 106 31 120 35 29 10 107 33 305 91 77 22 151 44 165 49 34 12 40 12 40 0z"></path></g></g></svg>